<svg xmlns="http://www.w3.org/2000/svg" width="28" height="28" viewBox="0 0 28 28" fill="none">
 <path d="M7.33602 7.33366C7.33602 3.65176 10.3219 0.666992 14.0052 0.666992C17.6885 0.666992 20.6744 3.65176 20.6744 7.33366C20.6744 11.0156 17.6885 14.0003 14.0052 14.0003C12.2364 14.0003 10.5401 13.298 9.28938 12.0477C8.03866 10.7975 7.33602 9.10177 7.33602 7.33366ZM27.1602 24.917L24.7593 20.1003C23.911 18.4017 22.1735 17.3299 20.2742 17.3337H7.73617C5.83695 17.3299 4.09946 18.4017 3.25114 20.1003L0.850234 24.917C0.590187 25.4329 0.615903 26.0465 0.918197 26.5389C1.22049 27.0312 1.75625 27.3319 2.33413 27.3337H25.6763C26.2542 27.3319 26.7899 27.0312 27.0922 26.5389C27.3945 26.0465 27.4202 25.4329 27.1602 24.917Z" fill="#860E1C"/>
</svg>